<svg
  width="127"
  height="25"
  viewBox="0 0 127 25"
  xmlns="http://www.w3.org/2000/svg"
>
  <g clip-path="url(#clip0_62_689)">
    <path
      opacity="0.7"
      fill-rule="evenodd"
      clip-rule="evenodd"
      d="M10.6742 6.12141C10.7902 5.83421 11.0648 5.64623 11.3702 5.64465H7.8033C6.56623 5.64465 5.47423 6.46523 5.11223 7.66682C4.55868 9.50424 5.91164 11.3621 7.8033 11.3621H10.6678L10.6675 11.3629H13.0786C13.6167 11.3629 13.9828 11.9174 13.7786 12.4231C13.6713 12.6885 13.4286 12.8692 13.1514 12.8963H16.6496C17.8865 12.8963 18.9784 12.0759 19.3404 10.8745C19.883 9.07343 18.5938 7.25274 16.7608 7.18165H11.3741C10.836 7.18165 10.4699 6.6271 10.6742 6.12141Z"
    />
    <path
      d="M11.14 5.64558L11.1762 5.64572H15.8967C18.7725 5.64572 21.3034 3.37062 22.1095 0.0609131H11.9165C9.04359 0.0609131 6.51329 2.34153 5.70459 5.64572C5.43555 6.54601 5.27024 7.05021 5.04321 7.95212C6.13613 5.62562 8.58744 5.63539 11.14 5.64558Z"
    />
    <path
      d="M19.3758 10.7445C18.6363 12.1476 17.166 12.8174 14.7414 12.8956H8.5952C5.69643 12.8512 3.11637 14.7548 2.26136 17.5687L0.040329 24.8782C2.93911 24.9226 5.51916 23.019 6.37417 20.205L6.70289 19.1234C7.08491 18.1112 7.50346 17.6654 8.79033 17.6654H12.5544C15.4533 17.6654 18.0046 15.7223 18.8171 12.8956H18.8164L19.3758 10.7445Z"
    />
    <path
      d="M30.0789 14.6868C30.1612 15.8368 31.1905 17.9487 34.4018 17.9487C37.1396 17.9487 38.4776 16.2132 38.4776 14.4358C38.4776 12.9094 37.4484 11.6129 35.3281 11.1738L33.9695 10.9019C33.5166 10.8183 33.1667 10.5674 33.1667 10.1283C33.1667 9.58459 33.6813 9.22911 34.2783 9.22911C35.2251 9.22911 35.6575 9.8146 35.7399 10.5046L38.3337 10.0237C38.2307 8.81089 37.2014 6.92896 34.2372 6.92896C31.9521 6.92896 30.3053 8.47633 30.3053 10.3792C30.3053 11.8429 31.17 13.0975 33.352 13.5785L34.5253 13.8503C35.287 14.0176 35.5341 14.3313 35.5341 14.7076C35.5341 15.1677 35.1428 15.6068 34.34 15.6068C33.2695 15.6068 32.7756 14.9168 32.7345 14.2058L30.0789 14.6868Z"
    />
    <path
      d="M47.0394 17.635H50.0449C50.0243 17.4678 49.9419 16.715 49.9419 15.7741V7.24255H46.8129V13.1602C46.8129 14.2057 46.1542 14.9376 45.1044 14.9376C43.9928 14.9376 43.4576 14.143 43.4576 13.1393V7.24255H40.3286V13.8084C40.3286 16.025 41.7284 17.865 44.2193 17.865C45.2485 17.865 46.4218 17.4887 46.957 16.5895C46.957 16.8613 46.9982 17.4469 47.0394 17.635Z"
    />
    <path
      d="M55.8232 21.6081V16.8196C56.2967 17.4051 57.2847 17.8651 58.6022 17.8651C61.4635 17.8651 63.4809 15.586 63.4809 12.4075C63.4809 9.29186 61.69 6.9917 58.7257 6.9917C57.2642 6.9917 56.1526 7.63993 55.7203 8.30907V7.24263H52.6943V21.6081H55.8232ZM60.4137 12.4284C60.4137 14.164 59.3228 15.0213 58.0875 15.0213C56.8731 15.0213 55.782 14.1431 55.782 12.4284C55.782 10.6929 56.8731 9.85644 58.0875 9.85644C59.3228 9.85644 60.4137 10.6929 60.4137 12.4284Z"
    />
    <path
      d="M67.8671 11.1947C67.9288 10.421 68.5875 9.43821 69.905 9.43821C71.3871 9.43821 71.9223 10.4001 71.9636 11.1947H67.8671ZM72.1899 13.8921C71.9018 14.7076 71.2636 15.2513 70.1315 15.2513C68.9169 15.2513 67.8671 14.415 67.8053 13.2439H74.9278C74.9483 13.1812 74.9895 12.7002 74.9895 12.2611C74.9895 8.91545 73.0339 6.92896 69.8639 6.92896C67.2082 6.92896 64.7587 9.06183 64.7587 12.4075C64.7587 15.8996 67.2701 17.9487 70.0903 17.9487C72.684 17.9487 74.3103 16.4433 74.8043 14.645L72.1899 13.8921Z"
    />
    <path
      d="M83.5036 7.24262C83.2976 7.17989 82.9889 7.13806 82.6801 7.13806C81.8567 7.13806 80.5598 7.47263 80.0246 8.64361V7.24262H76.9986V17.6351H80.1276V13.0975C80.1276 11.0274 81.2597 10.2746 82.5154 10.2746C82.8242 10.2746 83.1536 10.2955 83.5036 10.3792V7.24262Z"
    />
    <path
      d="M91.569 9.91912V7.24258H89.3458V6.44798C89.3458 5.29789 90.128 5.04698 90.6838 5.04698C91.1778 5.04698 91.4454 5.10971 91.6101 5.15153V2.55863C91.3219 2.41225 90.7662 2.32861 90.128 2.32861C87.6371 2.32861 86.2167 3.95963 86.2167 6.34343V7.24258H84.5906V9.91912H86.2167V17.635H89.3458V9.91912H91.569Z"
    />
    <path
      d="M95.5095 12.4284C95.5095 10.6301 96.5181 9.68914 97.8562 9.68914C99.1324 9.68914 100.182 10.6301 100.182 12.4284C100.182 14.1849 99.1119 15.1887 97.8562 15.1887C96.5593 15.1887 95.5095 14.1431 95.5095 12.4284ZM100.203 16.4015C100.203 16.8405 100.244 17.405 100.285 17.6351H103.291C103.27 17.405 103.208 16.7359 103.208 15.7742V7.24262H100.182V8.43452C99.9764 7.95357 99.1736 6.92896 97.3414 6.92896C94.3154 6.92896 92.3599 9.31275 92.3599 12.4075C92.3599 15.6068 94.439 17.9279 97.4444 17.9279C98.7207 17.9279 99.7499 17.3006 100.203 16.2969V16.4015Z"
    />
    <path
      d="M110.62 9.85643C111.835 9.85643 112.453 10.6092 112.679 11.4038L115.479 10.5465C115.026 8.68543 113.379 6.92896 110.559 6.92896C107.553 6.92896 105.165 9.20819 105.165 12.4493C105.165 15.6696 107.615 17.9487 110.662 17.9487C113.4 17.9487 115.088 16.1504 115.54 14.3313L112.782 13.4739C112.556 14.2476 111.876 15.0213 110.662 15.0213C109.365 15.0213 108.274 14.1013 108.274 12.4493C108.274 10.7765 109.324 9.85643 110.62 9.85643Z"
    />
    <path
      d="M119.712 11.1947C119.774 10.421 120.433 9.43821 121.75 9.43821C123.232 9.43821 123.768 10.4001 123.809 11.1947H119.712ZM124.035 13.8921C123.747 14.7076 123.109 15.2513 121.977 15.2513C120.762 15.2513 119.712 14.415 119.651 13.2439H126.773C126.794 13.1812 126.835 12.7002 126.835 12.2611C126.835 8.91545 124.879 6.92896 121.709 6.92896C119.053 6.92896 116.604 9.06183 116.604 12.4075C116.604 15.8996 119.115 17.9487 121.935 17.9487C124.529 17.9487 126.156 16.4433 126.649 14.645L124.035 13.8921Z"
    />
  </g>
  <defs>
    <clipPath id="clip0_62_689">
      <rect width="126.875" height="25" />
    </clipPath>
  </defs>
</svg>
